<svg width="512.016" height="512" xmlns="http://www.w3.org/2000/svg">

 <g>
  <title>background</title>
  <rect fill="none" id="canvas_background" height="402" width="582" y="-1" x="-1"/>
 </g>
 <g>
  <title>Layer 1</title>
  <path fill="#3d9675" id="svg_1" d="m234.66797,469.33984c-129.38672,0 -234.66797,-105.27734 -234.66797,-234.66406s105.28125,-234.66797 234.66797,-234.66797c44.99219,0 88.76562,12.82032 126.58984,37.09766c7.42578,4.78125 9.60157,14.67969 4.82032,22.125c-4.79688,7.44531 -14.67579,9.59766 -22.1211,4.82031c-32.64062,-20.97265 -70.4414,-32.04297 -109.28906,-32.04297c-111.74609,0 -202.66797,90.92188 -202.66797,202.66797c0,111.74219 90.92188,202.66406 202.66797,202.66406c111.74219,0 202.66406,-90.92187 202.66406,-202.66406c0,-6.67969 -0.32031,-13.29297 -0.9375,-19.79687c-0.85156,-8.8125 5.58985,-16.6211 14.37891,-17.47266c8.83203,-0.8125 16.61719,5.58984 17.47265,14.37891c0.72266,7.53125 1.08594,15.16797 1.08594,22.89062c0,129.38672 -105.27734,234.66406 -234.66406,234.66406zm0,0"/>
  <path fill="#3d9675" id="svg_2" d="m261.33203,288.00781c-4.09375,0 -8.19141,-1.55859 -11.30469,-4.6914l-96,-96c-6.25,-6.25391 -6.25,-16.38672 0,-22.63672s16.38282,-6.25 22.63282,0l84.69531,84.69531l223.33594,-223.33984c6.2539,-6.25 16.38672,-6.25 22.63672,0s6.25,16.38281 0,22.63281l-234.66797,234.66797c-3.13672,3.11328 -7.23047,4.67187 -11.32813,4.67187zm0,0"/>
 </g>
</svg>