<svg width="405" height="184" xmlns="http://www.w3.org/2000/svg">

 <g>
  <title>background</title>
  <rect fill="none" id="canvas_background" height="402" width="582" y="-1" x="-1"/>
 </g>
 <g>
  <title>Layer 1</title>
  <path id="svg_1" fill="#000000" d="m2.35545,1.73166l122.60755,53.47914l35.597,-29.3816l0.291,-0.2427l0.364,0.0647l29.017,5.1222l42.717,-4.5558l1.287,-0.1375l-0.445,1.2138l-1.141,3.1396l-0.17,0.4532l-0.477,0.0647l-40.233,5.6643l-22.876,27.9574l-12.243,23.0537l-0.056,0.1052l-0.089,0.089l-33.121,32.546l-0.089,0.089l-0.113,0.056l-30.6275,15.739l2.7755,24.963l13.036,20.974l0.89,1.441l-1.675,-0.211l-4.572,-0.566l-0.291,-0.041l-0.202,-0.226l-19.9873,-22.277l-0.1457,-0.162l-0.0404,-0.218l-6.5706,-33.12l-0.0243,-0.13l0.0243,-0.145l5.0736,-31.8339l-21.8724,-20.173l-40.9043,-34.8921l-0.1376,-0.1133l-0.0728,-0.1619l-16.56408,-36.55092l-1.27043,-2.80788l2.33046,1.73166zm122.41355,55.16224l-121.13503,-52.83988l15.61733,34.47138l40.7749,34.8112l0.0162,0.0162l22.196,20.4643l0.3155,0.2913l-0.0728,0.4289l-5.114,32.1167l6.4977,32.772l19.6312,21.872l2.589,0.324l-12.2348,-19.688l-0.0971,-0.153l-0.0243,-0.186l-2.8564,-25.7l-0.0567,-0.55l0.5017,-0.259l31.0076,-15.933l32.942,-32.3758l12.227,-23.0214l0.041,-0.0728l0.048,-0.0647l23.127,-28.2649l0.194,-0.2428l0.316,-0.0485l40.062,-5.6401l0.535,-1.4646l-41.544,4.4263l-0.113,0.0161l-0.114,-0.0161l-28.758,-5.0737l-35.685,29.4625l-0.381,0.3156l-0.453,-0.1942z"/>
  <path id="svg_2" fill="#000000" d="m191.688,36.8827l-44.254,23.1266l-2.015,1.0519l0.898,-2.0877l13.991,-32.5536l1.481,0.6393l-13.093,30.4659l42.248,-22.0746l0.744,1.4322z"/>
  <path id="svg_3" fill="#000000" d="m125.173,55.6397l21.986,2.8564l0.518,0.0647l0.153,0.4936l8.853,28.2649l-1.546,0.4855l-8.698,-27.7793l-21.468,-2.7836l0.202,-1.6022z"/>
  <path id="svg_4" fill="#000000" d="m167.995,65.2204l-20.65,-5.025l-29.188,33.1362l-25.7964,43.1864l-1.3837,-0.834l25.8371,-43.2506l0.041,-0.0728l0.04,-0.0486l29.56,-33.5489l0.315,-0.3722l0.478,0.1214l21.128,5.1383l-0.381,1.5698z"/>
  <path id="svg_5" fill="#000000" d="m156.019,88.3632l-37.554,5.1626l5.122,26.4362l-1.594,0.299l-5.284,-27.2612l-0.162,-0.8415l0.85,-0.1133l38.404,-5.284l0.218,1.6022z"/>
  <path id="svg_6" fill="#000000" d="m127.131,55.5749l-8.836,37.4492l-0.138,0.5907l-0.615,0.0324l-35.8303,1.8611l-0.081,-1.6184l35.2323,-1.8206l8.69,-36.8585l1.578,0.3641z"/>
  <path id="svg_7" fill="#000000" d="m83.2168,159.288l9.8639,1.473l-17.268,-33.427l-0.2913,-0.575l0.4936,-0.413l40.977,-34.123l1.028,1.2381l-40.4756,33.7109l17.6969,34.261l0.7201,1.4l-1.5536,-0.235l-11.4257,-1.716l0.2347,-1.594z"/>
  <path id="svg_8" fill="#000000" d="m102.338,182.666l-8.5614,-20.554l1.4889,-0.623l8.5695,20.554l-1.497,0.623z"/>
  <path id="svg_9" fill="#000000" d="m116.96,93.4449l-31.5503,-28.6938l-0.0729,-0.0728l-0.0566,-0.089l-22.4145,-34.5523l1.3514,-0.8739l22.3578,34.4552l31.4771,28.629l-1.092,1.1976z"/>
  <path id="svg_10" fill="#000000" d="m107.541,49.2309l-21.1037,15.5688l-0.0971,0.0647l-0.0971,0.0405l-26.4766,10.0824l-0.5745,-1.5051l26.3714,-10.05l21.0226,-15.5041l0.955,1.3028z"/>
  <path id="svg_11" fill="#000000" d="m63.7153,30.385l-44.9746,9.7102l-0.3398,-1.5779l44.9665,-9.7102l0.3479,1.5779z"/>
  <path id="svg_12" fill="#000000" d="m2.49229,2.11197l85.43391,62.74433l-0.9548,1.3028l-85.44204,-62.74434l0.96293,-1.30279z"/>
  <path id="svg_13" fill="#000000" d="m98.5023,38.493l-27.1968,-32.44028l3.7466,23.20748l23.4502,9.2328zm-27.8441,-35.71749l31.1218,37.11739l2.039,2.4357l-2.954,-1.1653l-26.8406,-10.5599l-0.4289,-0.1699l-0.0728,-0.4531l-4.2806,-26.55754l-0.4612,-2.89689l1.8773,2.24954z"/>
  <path id="svg_14" fill="#000000" d="m191.656,31.7282l0.372,3.4633l40.807,-8.6664l0.34,1.578l-41.689,8.8525l-0.882,0.1861l-0.089,-0.8901l-0.469,-4.3535l1.61,-0.1699z"/>
  <path id="svg_15" fill="#000000" d="m148.696,57.5251l41.754,-21.8238l-0.324,-3.0102l-0.097,-0.0162l-28.491,-5.0331l-12.842,29.8833zm42.992,-20.6424l-44.254,23.1266l-2.015,1.0519l0.898,-2.0877l13.991,-32.5536l0.251,-0.5907l0.631,0.1133l29.017,5.1222l0.559,-0.0567l0.801,-0.089l0.089,0.8092l0.461,4.3534l0.057,0.5422l-0.486,0.2589z"/>
  <path id="svg_16" fill="#000000" d="m148.259,60.4139l7.849,25.0605l10.884,-20.5048l-18.733,-4.5557zm6.878,27.391l-8.852,-28.2649l-0.429,-1.141l1.392,0.1133l21.128,5.1383l1.011,0.2428l-0.485,0.9144l-12.284,23.1265l-1.586,1.6184l0.105,-1.7478z"/>
  <path id="svg_17" fill="#000000" d="m154.854,86.8905l-8.132,-25.983l-27.165,30.8381l35.297,-4.8551zm-7.024,-27.8361l8.853,28.2649l-0.202,0.8173l-0.462,0.2266l-38.404,5.284l-2.152,0.2913l1.432,-1.6265l29.552,-33.5489l0.946,-1.0762l0.437,1.3675z"/>
  <path id="svg_18" fill="#000000" d="m119.031,89.8844l26.412,-29.9884l-18.765,-2.4357l-7.647,32.4241zm28.637,-30.0532l-29.551,33.5489l-2.136,2.4276l0.736,-3.1397l8.561,-36.2758l0.17,-0.7121l0.72,0.089l20.999,2.727l1.505,0.1942l-1.004,1.1409z"/>
  <path id="svg_19" fill="#000000" d="m146.714,60.9075l-27.165,30.8381l35.305,-4.8551l-8.14,-25.983zm-29.819,31.4045l29.552,-33.5489l0.946,-1.0762l0.429,1.3675l8.853,28.2649l-0.114,0.7202l-0.55,0.3156l-38.404,5.284l-2.152,0.2913l1.44,-1.6184z"/>
  <path id="svg_20" fill="#000000" d="m153.608,88.695l-35.143,4.8308l4.831,24.9552l30.312,-29.786zm-36.211,3.35l38.404,-5.284l1.885,-0.8254l-1.214,2.201l-32.78,32.4164l-1.804,0.922l0.105,-1.214l-5.284,-27.2693l-0.162,-0.8334l0.85,-0.1133z"/>
  <path id="svg_21" fill="#000000" d="m117.114,95.0713l-23.3131,39.0267l28.0791,-14.427l-4.766,-24.5997zm-26.2909,40.2817l25.9909,-42.9277l1.084,-1.8126l0.405,2.0796l5.284,27.2697l0.113,0.591l-0.542,0.275l-31.1292,15.989l-0.4451,2.824l-0.7849,-3.997l0.0243,-0.291z"/>
  <path id="svg_22" fill="#000000" d="m90.9202,135.199l23.4668,-38.7116l-36.8426,30.6846l15.6901,30.377l-2.3709,-21.363l-0.0567,-0.777l0.0486,-0.105l0.0647,-0.105zm27.2778,-41.9402l-25.6999,43.0242l2.8241,25.433l0.4774,4.337l-1.9987,-3.876l-17.9882,-34.835l-0.2913,-0.575l0.5017,-0.413l40.9769,-34.1229l3.634,-3.0264l-2.436,4.0541z"/>
  <path id="svg_23" fill="#000000" d="m115.131,93.7766l-32.7639,1.6993l-4.7014,29.4951l37.4653,-31.1944zm-33.5002,0.1133l35.8312,-1.853l2.419,-0.1295l-1.861,1.5537l-40.9773,34.1229l-0.9387,1.376l-0.5907,-2.201l5.3568,-32.1813l0.1052,-0.6473l0.6555,-0.0405z"/>
  <path id="svg_24" fill="#000000" d="m81.9706,93.8737l33.5574,-1.7397l-28.5971,-26.0073l-1.3352,-0.9791l-24.6154,9.3785l20.9903,19.3476zm35.5714,-0.2265l-35.8303,1.853l-0.3399,0.0162l-0.2509,-0.2266l-22.1878,-20.4562l-0.9549,-0.882l1.2138,-0.4613l26.25,-9.9934l0.4046,-0.1538l0.356,0.259l1.7236,1.2704l0.0405,0.0324l0.0323,0.0242l30.061,27.3344l1.594,1.1166l-2.112,0.2671z"/>
  <path id="svg_25" fill="#000000" d="m19.0402,38.3797l23.2722,-5.025l-38.29074,-28.11926l15.01854,33.14426zm25.3599,-3.8193l-25.6593,5.5429l0.1456,0.5341l-1.0519,-0.9953l-16.56408,-36.551l-1.27042,-2.80788l2.49229,1.82876l42.22341,31.00802l1.4484,1.0681l-1.764,0.3723z"/>
  <path id="svg_26" fill="#000000" d="m107.169,49.506l-19.9387,14.703l0.7607,0.6959l29.042,26.4118l8.019,-34.0101l-0.308,-0.1295l-17.575,-7.6711zm-21.6865,13.9909l21.1035,-15.5688l0.372,-0.2751l0.429,0.1861l17.56,7.663l0.89,-0.7364l1.853,-1.5293l-0.551,2.3304l-0.275,1.1734l-8.561,36.2758l-0.315,1.3352l-1.012,-0.9225l-30.0613,-27.3343l-1.497,-1.3595l-0.7282,-0.6635l0.793,-0.5745z"/>
  <path id="svg_27" fill="#000000" d="m86.1622,62.9871l19.2908,-14.2255l-39.7794,-17.349l20.4886,31.5745zm21.3788,-13.7562l-21.1037,15.5688l-0.6878,0.5098l-0.4693,-0.7202l-22.4145,-34.5523l-1.4646,-2.2495l2.4599,1.0762l43.518,18.9835l1.287,0.5583l-1.125,0.8254z"/>
  <path id="svg_28" fill="#000000" d="m162.752,131.833c0,1.812 -0.235,6.951 -6.717,6.951c-2.686,0 -5.081,-0.761 -5.081,-3.852c0,-3.043 2.338,-3.917 4.903,-4.443c2.574,-0.469 5.495,-0.526 6.895,-1.755l0,3.099zm-10.868,-9.233c0.292,-3.269 2.339,-4.556 5.495,-4.556c2.921,0 5.373,0.526 5.373,4.087c0,3.39 -4.734,3.212 -9.816,3.973c-5.146,0.704 -10.284,2.338 -10.284,9.176c0,6.198 4.555,9.055 10.284,9.055c3.682,0 7.534,-0.996 10.164,-3.739c0.056,0.995 0.291,1.991 0.59,2.921l8.416,0c-0.761,-1.222 -1.052,-3.973 -1.052,-6.716l0,-15.722c0,-7.251 -7.242,-8.594 -13.263,-8.594c-6.781,0 -13.731,2.339 -14.201,10.107l8.294,0l0,0.008zm23.823,20.917l8.294,0l0,-13.61c0,-5.317 2.104,-9.702 8.181,-9.702c0.995,0 2.217,0.113 2.978,0.291l0,-7.712c-0.526,-0.178 -1.222,-0.291 -1.813,-0.291c-4.03,0 -8.124,2.63 -9.645,6.425l-0.122,0l0,-5.608l-7.889,0l0,30.207l0.016,0zm21.718,0l8.295,0l0,-10.398l3.212,-3.099l8.294,13.497l10.05,0l-12.68,-19.105l11.394,-11.102l-9.816,0l-10.454,10.868l0,-22.382l-8.295,0l0,41.721zm49.83,-11.684c0,1.812 -0.235,6.951 -6.724,6.951c-2.687,0 -5.09,-0.761 -5.09,-3.852c0,-3.043 2.339,-3.917 4.912,-4.443c2.573,-0.469 5.494,-0.526 6.894,-1.755l0,3.099l0.008,0zm-10.875,-9.233c0.291,-3.269 2.338,-4.556 5.494,-4.556c2.921,0 5.373,0.526 5.373,4.087c0,3.39 -4.734,3.212 -9.815,3.973c-5.147,0.704 -10.285,2.338 -10.285,9.176c0,6.198 4.556,9.055 10.285,9.055c3.673,0 7.533,-0.996 10.163,-3.739c0.057,0.995 0.291,1.991 0.583,2.921l8.415,0c-0.761,-1.222 -1.052,-3.973 -1.052,-6.716l0,-15.722c0,-7.251 -7.25,-8.594 -13.262,-8.594c-6.781,0 -13.732,2.339 -14.202,10.107l8.303,0l0,0.008zm45.387,20.917l7.889,0l0,-41.721l-8.302,0l0,15.196l-0.121,0c-1.869,-2.978 -5.373,-4.499 -8.942,-4.499c-8.885,0 -13.376,7.542 -13.376,15.658c0,8.351 4.443,16.184 13.554,16.184c3.86,0 7.251,-1.4 9.177,-4.677l0.113,0l0,3.859l0.008,0zm-0.121,-15.196c0,4.968 -1.643,9.759 -7.129,9.759c-5.147,0 -7.307,-4.969 -7.307,-9.703c0,-4.968 1.869,-9.645 7.307,-9.645c5.381,0.008 7.129,4.685 7.129,9.589zm41.122,2.104c0.583,-9.29 -4.385,-17.94 -14.67,-17.94c-9.176,0 -15.431,6.894 -15.431,15.949c0,9.346 5.899,15.893 15.431,15.893c6.837,0 11.806,-3.043 14.144,-10.164l-7.307,0c-0.526,1.869 -3.212,3.917 -6.546,3.917c-4.612,0 -7.185,-2.396 -7.42,-7.655l21.799,0zm-21.799,-5.26c0.113,-2.339 1.634,-6.425 6.894,-6.425c4.03,0 5.842,2.217 6.603,6.425l-13.497,0zm25.166,18.352l8.294,0l0,-17.527c0,-5.899 3.973,-6.951 5.607,-6.951c5.26,0 5.025,4.03 5.025,7.542l0,16.944l8.303,0l0,-16.823c0,-3.795 0.874,-7.654 5.551,-7.654c4.733,0 5.081,3.333 5.081,7.363l0,17.114l8.303,0l0,-20.213c0,-7.825 -4.613,-10.811 -11.046,-10.811c-4.207,0 -7.363,2.395 -9.111,5.025c-1.635,-3.625 -5.025,-5.025 -8.82,-5.025c-3.917,0 -7.073,1.813 -9.233,4.912l-0.113,0l0,-4.095l-7.833,0l0,30.199l-0.008,0zm78.458,-30.207l-8.585,0l-6.603,20.683l-0.113,0l-6.838,-20.683l-8.885,0l10.633,28.338c0.938,2.395 0,5.373 -2.865,5.664c-1.634,0.057 -3.269,-0.178 -4.847,-0.291l0,6.838c1.7,0.178 3.391,0.291 5.082,0.291c5.729,0 8.585,-1.991 10.398,-6.838l12.623,-34.002z"/>
  <path id="svg_29" fill="#000000" d="m149.845,157.121l-6.449,0l0,-1.141l0,-1.141l15.48,0l0,1.141l0,1.141l-6.449,0l0,16.79l-1.287,0l-1.295,0l0,-16.79z"/>
  <path id="svg_30" fill="#000000" d="m166.636,174.283c-1.967,0 -3.512,-0.623 -4.629,-1.87c-1.124,-1.246 -1.691,-2.969 -1.691,-5.162c0,-2.339 0.599,-4.192 1.788,-5.576c1.19,-1.383 2.784,-2.071 4.799,-2.071c1.821,0 3.285,0.672 4.402,2.023c1.117,1.343 1.675,3.123 1.675,5.316l-0.024,0.834l-10.14,0c0.098,1.383 0.413,2.444 0.947,3.164c0.656,0.882 1.691,1.327 3.116,1.327c0.89,0 1.666,-0.251 2.338,-0.753c0.664,-0.501 1.068,-1.141 1.222,-1.918l2.314,0c-0.348,1.522 -1.035,2.687 -2.079,3.488c-1.068,0.801 -2.404,1.198 -4.038,1.198zm3.9,-8.384c-0.073,-1.286 -0.388,-2.29 -0.963,-3.01c-0.631,-0.793 -1.553,-1.189 -2.775,-1.189c-1.23,0 -2.209,0.461 -2.946,1.375c-0.574,0.721 -0.93,1.659 -1.052,2.833l7.736,0l0,-0.009z"/>
  <path id="svg_31" fill="#000000" d="m186.712,168.91c-0.243,1.747 -0.858,3.083 -1.853,3.997c-0.996,0.922 -2.323,1.376 -3.973,1.376c-1.845,0 -3.318,-0.664 -4.41,-1.983c-1.101,-1.319 -1.651,-3.107 -1.651,-5.349c0,-2.241 0.566,-4.021 1.707,-5.348c1.141,-1.327 2.67,-1.991 4.588,-1.991c1.675,0 3.002,0.453 3.998,1.368c0.995,0.914 1.529,2.168 1.594,3.77l-2.25,0c-0.097,-0.995 -0.437,-1.764 -1.036,-2.306c-0.598,-0.55 -1.391,-0.817 -2.387,-0.817c-1.181,0 -2.104,0.469 -2.775,1.424c-0.672,0.947 -1.004,2.25 -1.004,3.908c0,1.765 0.316,3.1 0.939,3.982c0.623,0.89 1.546,1.335 2.776,1.335c0.906,0 1.667,-0.291 2.282,-0.882c0.606,-0.583 1.011,-1.408 1.213,-2.484l2.242,0l0,0z"/>
  <path id="svg_32" fill="#000000" d="m189.042,154.83l1.165,0l1.166,0l0,7.072l0.404,-0.518c1.012,-1.181 2.282,-1.772 3.803,-1.772c1.538,0 2.719,0.413 3.545,1.246c0.833,0.834 1.246,2.015 1.246,3.544l0,9.508l-1.173,0l-1.166,0l0,-8.925c0,-1.149 -0.218,-1.982 -0.663,-2.484c-0.445,-0.51 -1.157,-0.761 -2.153,-0.761c-1.181,0 -2.112,0.429 -2.799,1.279c-0.688,0.849 -1.036,2.007 -1.036,3.455l0,7.436l-1.165,0l-1.166,0l0,-19.08l-0.008,0z"/>
  <path id="svg_33" fill="#000000" d="m217.064,154.83l1.473,0l1.473,0l6.854,19.072l-1.384,0l-1.384,0l-1.942,-5.526l-7.614,0l-2.007,5.526l-1.335,0l-1.335,0l7.201,-19.072zm-1.715,11.264l6.004,0l-2.945,-8.456l0.008,0l-3.067,8.456z"/>
  <path id="svg_34" fill="#000000" d="m239.891,168.91c-0.242,1.747 -0.865,3.083 -1.861,3.997c-0.995,0.922 -2.322,1.376 -3.965,1.376c-1.845,0 -3.317,-0.664 -4.41,-1.983c-1.1,-1.319 -1.642,-3.107 -1.642,-5.349c0,-2.241 0.566,-4.021 1.699,-5.348c1.141,-1.327 2.67,-1.991 4.588,-1.991c1.667,0 3.002,0.453 3.997,1.368c0.996,0.914 1.53,2.168 1.594,3.77l-2.249,0c-0.089,-0.995 -0.445,-1.764 -1.036,-2.306c-0.591,-0.55 -1.392,-0.817 -2.387,-0.817c-1.173,0 -2.096,0.469 -2.767,1.424c-0.672,0.947 -1.004,2.25 -1.004,3.908c0,1.765 0.316,3.1 0.931,3.982c0.623,0.89 1.553,1.335 2.783,1.335c0.907,0 1.667,-0.291 2.274,-0.882c0.607,-0.583 1.012,-1.408 1.214,-2.484l2.241,0l0,0z"/>
  <path id="svg_35" fill="#000000" d="m245.879,174.283c-1.359,0 -2.435,-0.365 -3.228,-1.093c-0.793,-0.728 -1.19,-1.707 -1.19,-2.945c0,-1.246 0.373,-2.234 1.125,-2.97c0.745,-0.736 1.837,-1.198 3.277,-1.376l3.172,-0.404c0.259,-0.024 0.51,-0.073 0.745,-0.13c0.299,-0.081 0.534,-0.234 0.704,-0.469c0.162,-0.235 0.243,-0.526 0.243,-0.882l0,-0.113c0,-0.745 -0.284,-1.327 -0.842,-1.748c-0.558,-0.421 -1.343,-0.631 -2.347,-0.631c-0.963,0 -1.715,0.226 -2.249,0.671c-0.542,0.445 -0.866,1.109 -0.979,1.991l-2.153,0c0.114,-1.521 0.648,-2.662 1.61,-3.431c0.963,-0.769 2.339,-1.149 4.127,-1.149c1.683,0 2.97,0.364 3.852,1.092c0.882,0.729 1.327,1.797 1.327,3.197l0,7.63c0,0.235 0.073,0.421 0.211,0.567c0.145,0.145 0.331,0.21 0.574,0.21c0.073,0 0.17,-0.008 0.308,-0.024c0.129,-0.016 0.275,-0.041 0.428,-0.081l0,1.691c-0.226,0.081 -0.461,0.154 -0.712,0.211c-0.251,0.048 -0.461,0.072 -0.639,0.072c-0.882,0 -1.521,-0.242 -1.918,-0.728c-0.259,-0.324 -0.445,-0.777 -0.558,-1.367c-0.17,0.218 -0.372,0.42 -0.599,0.623c-1.173,1.068 -2.597,1.586 -4.289,1.586zm4.839,-5.875l0,-1.505c-0.428,0.21 -0.906,0.348 -1.44,0.429l-2.136,0.315c-1.125,0.154 -1.95,0.413 -2.468,0.785c-0.518,0.364 -0.777,0.866 -0.777,1.497c0,0.777 0.21,1.376 0.639,1.797c0.421,0.42 1.028,0.631 1.805,0.631c1.23,0 2.265,-0.332 3.115,-0.996c0.575,-0.469 0.963,-0.995 1.157,-1.586c0.041,-0.113 0.057,-0.283 0.081,-0.526c0.016,-0.267 0.024,-0.542 0.024,-0.841z"/>
  <path id="svg_36" fill="#000000" d="m262.298,174.283c-1.861,0 -3.342,-0.696 -4.434,-2.08c-1.101,-1.384 -1.651,-3.261 -1.651,-5.624c0,-2.088 0.534,-3.763 1.602,-5.049c1.06,-1.279 2.452,-1.918 4.167,-1.918c1.7,0 3.051,0.72 4.046,2.169l0.178,0.259l0,-7.202l1.165,0l1.166,0l0,19.072l-1.077,0l-1.092,0l0,-1.893l-0.299,0.429c-0.955,1.222 -2.217,1.837 -3.771,1.837zm0.129,-12.575c-1.311,0 -2.265,0.421 -2.872,1.254c-0.607,0.834 -0.907,2.161 -0.907,3.981c0,1.716 0.332,3.035 0.98,3.957c0.655,0.923 1.586,1.392 2.799,1.392c1.133,0 2.048,-0.421 2.735,-1.278c0.696,-0.85 1.036,-1.983 1.036,-3.383c0,-1.893 -0.324,-3.35 -0.979,-4.378c-0.647,-1.027 -1.578,-1.545 -2.792,-1.545z"/>
  <path id="svg_37" fill="#000000" d="m277.438,174.283c-1.958,0 -3.504,-0.623 -4.629,-1.87c-1.125,-1.246 -1.683,-2.969 -1.683,-5.162c0,-2.339 0.591,-4.192 1.788,-5.576c1.19,-1.383 2.784,-2.071 4.791,-2.071c1.82,0 3.285,0.672 4.402,2.023c1.116,1.343 1.675,3.123 1.675,5.316l-0.033,0.834l-10.139,0c0.097,1.383 0.413,2.444 0.947,3.164c0.655,0.882 1.699,1.327 3.115,1.327c0.891,0 1.667,-0.251 2.339,-0.753c0.664,-0.501 1.068,-1.141 1.222,-1.918l2.306,0c-0.348,1.522 -1.036,2.687 -2.08,3.488c-1.043,0.801 -2.387,1.198 -4.021,1.198zm3.9,-8.384c-0.073,-1.286 -0.388,-2.29 -0.963,-3.01c-0.631,-0.793 -1.554,-1.189 -2.784,-1.189c-1.229,0 -2.209,0.461 -2.945,1.375c-0.574,0.721 -0.931,1.659 -1.052,2.833l7.744,0l0,-0.009z"/>
  <path id="svg_38" fill="#000000" d="m286.565,160.025l1.109,0l1.117,0l0,2.063l0.477,-0.623c1.044,-1.238 2.298,-1.853 3.755,-1.853c1.246,0 2.233,0.364 2.969,1.101c0.332,0.331 0.583,0.704 0.769,1.132l0.372,-0.477c1.004,-1.165 2.201,-1.748 3.601,-1.748c1.457,0 2.573,0.397 3.366,1.19c0.793,0.793 1.19,1.917 1.19,3.366l0,9.742l-1.165,0l-1.166,0l0,-8.957c0,-1.052 -0.218,-1.853 -0.647,-2.395c-0.429,-0.543 -1.068,-0.818 -1.893,-0.818c-1.012,0 -1.821,0.389 -2.42,1.182c-0.599,0.785 -0.898,1.853 -0.898,3.188l0,7.8l-1.165,0l-1.165,0l0,-9.507c0,-0.866 -0.195,-1.53 -0.591,-1.983c-0.397,-0.453 -0.971,-0.68 -1.716,-0.68c-1.035,0 -1.885,0.445 -2.549,1.319c-0.663,0.882 -0.995,2.023 -0.995,3.415l0,7.436l-1.165,0l-1.165,0l0,-13.893l-0.025,0z"/>
  <path id="svg_39" fill="#000000" d="m314.685,174.364c-0.818,2.136 -1.538,3.536 -2.177,4.191c-0.631,0.656 -1.586,0.979 -2.856,0.979c-0.413,0.008 -0.794,-0.04 -1.125,-0.137l0,-2.169c0.356,0.13 0.801,0.202 1.335,0.202c0.526,0 0.971,-0.218 1.327,-0.647c0.356,-0.429 0.761,-1.238 1.206,-2.428l0.032,-0.218l-5.155,-14.12l1.328,0l1.343,0l3.706,11.482l3.763,-11.482l1.27,0l1.287,0l-5.284,14.347z"/>
 </g>
</svg>